<svg height="15" viewBox="0 0 20 15" width="20" xmlns="http://www.w3.org/2000/svg" xmlns:xlink="http://www.w3.org/1999/xlink"><clipPath id="a"><path d="m874 123h20v15h-20z"/></clipPath><clipPath id="b"><path d="m0 0h20v15h-20z"/></clipPath><g clip-path="url(#b)"><g clip-path="url(#a)" transform="translate(-874 -123)"><g fill-rule="evenodd" transform="translate(874 123)"><path d="m0 0h28.506v1.157h-28.506zm0 2.31h28.506v1.156h-28.506zm0 2.307h28.506v1.156h-28.506zm0 2.306h28.506v1.157h-28.506zm0 2.313h28.506v1.15h-28.506zm0 2.3h28.506v1.164h-28.506zm0 2.307h28.506v1.157h-28.506z" fill="#bd3d44"/><path d="m0 37h28.506v1.153h-28.506zm0 2.307h28.506v1.153h-28.506zm0 2.307h28.506v1.156h-28.506zm0 2.31h28.506v1.156h-28.506zm0 2.306h28.506v1.157h-28.506zm0 2.307h28.506v1.157h-28.506z" fill="#fff" transform="translate(0 -35.843)"/><path d="m0 0h11.4v8.08h-11.4z" fill="#192f5d"/><path d="m16.741 11 .106.322h.331l-.269.2.1.322-.272-.2-.269.2.1-.319-.272-.2h.341zm1.9 0 .1.322h.338l-.272.2.1.322-.269-.2-.272.2.1-.319-.269-.2h.331zm1.9 0 .1.322h.334l-.269.2.1.322-.272-.2-.272.2.1-.319-.272-.2h.338zm1.9 0 .1.322h.338l-.272.2.1.322-.272-.2-.272.2.106-.319-.275-.2h.334zm1.9 0 .1.322h.334l-.269.2.1.322-.272-.2-.272.2.1-.319-.269-.2h.334zm1.9 0 .1.322h.338l-.275.2.106.322-.272-.2-.272.2.106-.319-.275-.2h.338zm-8.552.813.1.319h.341l-.272.194.1.322-.266-.2-.272.2.1-.322-.263-.194h.334zm1.9 0 .106.319h.334l-.275.194.106.322-.272-.2-.272.2.1-.322-.272-.194h.338zm1.9 0 .1.319h.338l-.272.194.1.322-.272-.2-.272.2.1-.322-.269-.194h.331zm1.9 0 .106.319h.334l-.275.194.106.322-.272-.2-.269.2.1-.322-.272-.194h.341zm1.9 0 .1.319h.338l-.272.194.1.322-.272-.2-.272.2.1-.322-.269-.194h.334zm-8.552.8.106.325h.331l-.269.2.1.319-.272-.2-.269.2.1-.319-.272-.2h.341zm1.9 0 .1.325h.338l-.272.2.1.319-.269-.2-.272.2.1-.322-.269-.2h.331zm1.9 0 .1.322h.334l-.269.2.1.319-.272-.2-.272.2.1-.322-.272-.2h.338zm1.9 0 .1.322h.338l-.272.2.1.319-.272-.2-.272.2.106-.322-.275-.2h.334zm1.9 0 .1.322h.334l-.269.2.1.319-.272-.2-.272.2.1-.322-.269-.2h.334zm1.9 0 .1.322h.338l-.275.2.106.319-.272-.2-.272.2.106-.322-.275-.2h.338zm-8.552.813.1.319h.341l-.272.2.1.322-.272-.2-.272.2.1-.319-.269-.2h.334zm1.9 0 .106.319h.334l-.275.2.106.322-.272-.2-.272.2.1-.319-.272-.2h.338zm1.9 0 .1.319h.338l-.272.2.1.322-.272-.2-.272.2.1-.319-.269-.2h.331zm1.9 0 .106.319h.334l-.272.2.1.322-.272-.2-.269.2.1-.319-.272-.2h.341zm1.9 0 .1.319h.338l-.272.2.1.322-.272-.2-.272.2.1-.319-.269-.2h.334zm-8.552.81.106.319h.331l-.269.2.1.322-.272-.2-.269.2.1-.319-.272-.2h.341zm1.9 0 .1.319h.338l-.272.2.1.319-.269-.2-.272.2.1-.319-.269-.2h.331zm1.9 0 .1.319h.334l-.269.2.1.322-.272-.2-.272.2.1-.319-.272-.2h.338zm1.9 0 .1.319h.338l-.272.2.1.322-.272-.2-.272.2.106-.319-.275-.2h.334zm1.9 0 .1.319h.334l-.269.2.1.322-.272-.2-.272.2.1-.319-.269-.2h.334zm1.9 0 .1.319h.338l-.275.2.106.322-.272-.2-.272.2.1-.319-.275-.2h.338zm-8.552.806.1.322h.341l-.272.194.1.322-.272-.2-.272.2.1-.322-.269-.2h.334zm1.9 0 .106.322h.334l-.275.194.106.322-.272-.2-.272.2.1-.322-.272-.2h.338zm1.9 0 .1.322h.338l-.272.194.1.322-.272-.2-.272.2.1-.322-.269-.2h.331zm1.9 0 .106.322h.334l-.272.194.1.322-.272-.2-.269.2.1-.322-.272-.2h.341zm1.9 0 .1.322h.338l-.272.194.1.322-.272-.2-.272.2.1-.322-.269-.2h.334zm-8.552.806.106.322h.331l-.269.2.1.316-.272-.194-.269.194.1-.319-.272-.2h.341zm1.9 0 .1.322h.338l-.272.2.1.316-.272-.194-.272.194.106-.319-.272-.2h.331zm1.9 0 .1.322h.334l-.269.2.1.316-.272-.194-.272.194.1-.319-.272-.2h.338zm1.9 0 .1.322h.338l-.272.2.1.316-.272-.194-.272.194.106-.319-.275-.2h.334zm1.9 0 .1.322h.334l-.269.2.1.316-.272-.194-.272.194.1-.319-.269-.2h.334zm1.9 0 .1.322h.338l-.275.2.106.316-.272-.194-.272.194.106-.319-.275-.2h.338zm-8.552.81.1.319h.341l-.272.2.1.322-.272-.2-.272.2.1-.319-.269-.2h.334zm1.9 0 .106.319h.334l-.275.2.106.322-.272-.2-.272.2.1-.319-.272-.2h.338zm1.9 0 .1.319h.338l-.272.2.1.322-.272-.2-.272.2.1-.319-.269-.2h.331zm1.9 0 .106.319h.334l-.272.2.1.322-.272-.2-.269.2.1-.319-.272-.2h.341zm1.9 0 .1.319h.338l-.272.2.1.322-.272-.2-.272.2.1-.319-.269-.2h.334zm-8.552.81.106.319h.331l-.269.2.1.319-.272-.2-.269.2.1-.322-.272-.2h.341zm1.9 0 .1.319h.338l-.272.2.1.319-.272-.2-.272.2.106-.322-.272-.2h.331zm1.9 0 .1.319h.334l-.263.2.1.319-.272-.2-.272.2.1-.322-.272-.2h.338zm1.9 0 .1.319h.338l-.272.2.1.319-.272-.2-.272.2.106-.322-.275-.2h.334zm1.9 0 .1.319h.334l-.269.2.1.319-.272-.2-.272.2.1-.322-.269-.2h.334zm1.9 0 .1.319h.338l-.275.2.106.319-.272-.2-.272.2.106-.322-.275-.2h.338z" fill="#fff" transform="translate(-15.791 -10.656)"/></g></g></g></svg>